<svg width="84" height="21" viewBox="0 0 84 21" fill="none" xmlns="http://www.w3.org/2000/svg">
<g clip-path="url(#clip0_4557_3237)">
<path d="M0.0630287 17.2437C1.88618 17.2437 4.95676 17.2437 8.12328 17.2437C8.12328 15.7088 8.12328 13.982 8.21924 13.2145C8.89093 13.1186 10.906 13.1186 11.7696 13.2145C11.7696 14.1739 11.7696 15.8047 11.7696 17.2437C15.5119 17.2437 18.8703 17.2437 19.9258 17.2437C20.0218 18.1071 20.0218 19.2583 19.9258 20.2176C17.9107 20.3135 2.84574 20.3135 0.158984 20.2176C-0.0329267 19.3542 -0.0329267 18.1071 0.0630287 17.2437ZM1.31045 0.93523C3.51742 0.839298 16.0876 0.839298 18.3905 0.93523C18.4865 1.79862 18.4865 3.2376 18.3905 4.10099C16.7593 4.10099 6.588 4.10099 4.8608 4.10099C4.8608 5.15625 4.8608 7.84235 4.8608 8.80167C6.68395 8.80167 17.1431 8.80167 18.7743 8.80167C18.8703 9.66506 18.8703 11.2 18.7743 11.8715C16.8552 11.9674 3.51742 11.9674 1.21449 11.8715C1.11854 9.1854 1.21449 3.5254 1.31045 0.93523Z" fill="#0083F0"/>
<path d="M21.653 0.455678C23.8599 0.359746 30.8647 0.359746 33.1676 0.455678C33.2636 1.31907 33.2636 2.47025 33.1676 3.33364C31.5364 3.33364 26.8346 3.33364 25.1074 3.33364C25.1074 4.3889 25.1074 6.01974 25.1074 6.97906C26.9305 6.97906 32.4 6.97906 34.1272 6.97906C34.2231 7.84245 34.2231 9.1855 34.1272 9.85703C32.2081 9.95296 23.668 9.95296 21.653 9.85703C21.4611 7.26686 21.4611 3.14178 21.653 0.455678ZM22.4206 11.9675C23.8599 11.8716 38.9249 11.8716 39.5007 11.9675C39.5966 13.7902 39.5966 19.1624 39.5007 20.8892C37.9654 20.9852 24.1478 21.0811 22.4206 20.8892C22.3247 18.2991 22.3247 14.2699 22.4206 11.9675ZM36.1422 18.0113C36.1422 17.3397 36.1422 15.7089 36.1422 14.9414C34.8948 14.8455 27.3143 14.9414 25.779 14.9414C25.779 15.613 25.6831 17.1479 25.779 18.0113C26.8346 18.0113 35.1827 18.0113 36.1422 18.0113ZM36.1422 0.0719491C36.8139 -0.023983 38.733 -0.023983 39.5966 0.0719491C39.5966 0.935339 39.5966 2.18246 39.5966 3.52551C40.4602 3.52551 41.1319 3.52551 41.6117 3.52551C41.7076 4.3889 41.7076 5.73195 41.6117 6.59534C41.2279 6.59534 40.5562 6.69127 39.5966 6.69127C39.5966 8.41805 39.5966 9.95296 39.5966 10.8164C38.9249 10.9123 37.0058 10.9123 36.1422 10.8164C36.0463 8.99364 36.0463 1.79873 36.1422 0.0719491Z" fill="#0083F0"/>
<path d="M42.3794 17.2437C44.2026 17.2437 47.2732 17.2437 50.5356 17.2437C50.5356 15.7088 50.5356 13.982 50.5356 13.2145C51.2073 13.1186 53.2224 13.1186 54.086 13.2145C54.086 14.1739 54.086 15.8047 54.086 17.2437C57.8283 17.2437 61.1867 17.2437 62.2422 17.2437C62.3382 18.1071 62.3382 19.2583 62.2422 20.2176C60.2271 20.3135 45.1621 20.3135 42.4754 20.2176C42.2835 19.3542 42.2835 18.1071 42.3794 17.2437ZM43.6269 0.93523C45.8338 0.839298 58.404 0.839298 60.7069 0.93523C60.8029 1.79862 60.8029 3.2376 60.7069 4.10099C59.0757 4.10099 48.9044 4.10099 47.1772 4.10099C47.1772 5.15625 47.1772 7.84235 47.1772 8.80167C49.0004 8.80167 59.4595 8.80167 61.0907 8.80167C61.1867 9.66506 61.1867 11.2 61.0907 11.8715C59.1716 11.9674 45.8338 11.9674 43.5309 11.8715C43.5309 9.1854 43.5309 3.5254 43.6269 0.93523Z" fill="#0083F0"/>
<path d="M63.9692 0.455678C66.1762 0.359746 73.1809 0.359746 75.4838 0.455678C75.5798 1.31907 75.5798 2.47025 75.4838 3.33364C73.8526 3.33364 69.1508 3.33364 67.4236 3.33364C67.4236 4.3889 67.4236 6.01974 67.4236 6.97906C69.2467 6.97906 74.7162 6.97906 76.4434 6.97906C76.5393 7.84245 76.5393 9.1855 76.4434 9.85703C74.5243 9.95296 66.0802 9.95296 63.9692 9.85703C63.8732 7.26686 63.8732 3.14178 63.9692 0.455678ZM64.8328 11.9675C66.2721 11.8716 81.3371 11.8716 81.9129 11.9675C82.0088 13.7902 82.0088 19.1624 81.9129 20.8892C80.3776 20.9852 66.56 21.0811 64.8328 20.8892C64.6409 18.2991 64.7368 14.2699 64.8328 11.9675ZM78.5544 18.0113C78.6504 17.3397 78.6504 15.7089 78.5544 14.9414C77.307 14.8455 69.7265 14.9414 68.1912 14.9414C68.0953 15.613 68.0953 17.1479 68.1912 18.0113C69.2467 18.0113 77.5949 18.0113 78.5544 18.0113ZM78.4585 0.0719491C79.1301 -0.023983 81.0493 -0.023983 81.9129 0.0719491C81.9129 0.935339 81.9129 2.18246 81.9129 3.52551C82.7765 3.52551 83.4481 3.52551 83.9279 3.52551C84.0239 4.3889 84.0239 5.73195 83.9279 6.59534C83.5441 6.59534 82.8724 6.69127 81.9129 6.69127C81.9129 8.41805 81.9129 9.95296 81.8169 10.8164C81.1452 10.9123 79.2261 10.9123 78.3625 10.8164C78.3625 8.99364 78.3625 1.79873 78.4585 0.0719491Z" fill="#0083F0"/>
</g>
<defs>
<clipPath id="clip0_4557_3237">
<rect width="84" height="21" fill="white"/>
</clipPath>
</defs>
</svg>
